# xmcd
#
# Track frame offsets: 
#        150
#        9137
#        23579
#        31213
#        39683
#        50230
#        61241
#        70942
#        83373
#        93570
#        106002
#        114309
#        124286
#        134940
#        147487
#        158447
#        169355
#        183592
#        194365
#        203385
#        213830
#        224964
#        233959
#        244149
#        256105
#        267279
#        276431
#        286179
#        296852
#        306839
#
# Disc length: 4238 seconds
#
# Revision: 0
# Processed by: cddbd v1.5.1PL0 Copyright (c) Steve Scherf et al.
# Submitted via: ExactAudioCopy v0.95a4
#
DISCID=c3108c1e
DTITLE=Various Artist - Great Dixie Boppin' Hillbillies (5555)
DYEAR=1900
DGENRE=Country
TTITLE0=Luke Gordon and His Lonesome Drifters - Big New Dance
TTITLE1=Luke Gordon With C. Smith and Tenn. Haymakers - Goin' Crazy
TTITLE2=Bob and Cindy Dean - Gone For Another
TTITLE3="Cousin" Arnold and His Country Cousins - Be My Baby, Baby Doll
TTITLE4=Johhny Sutherland - We'll Have A Time, Yes Siree
TTITLE5=Bill Johnson and The Dabblers - Lonesome Daddy Blues
TTITLE6=Bill Stucker and The Tune Twisters - I Go On Pretending
TTITLE7=The Musical-Aires - Wildcat Boogie (Instr.)
TTITLE8=Rocking Martin - All Because Of You
TTITLE9=Hoyt Scoggings and The Georgia Boys - The Old Chain Gang
TTITLE10=Hoyt Scoggings and The Georgia Boys - What's The Price (To Set 
TTITLE10=Me Free)
TTITLE11=Taylor Porter and The Radio Ridge Runners - Sunny Side Of The M
TTITLE11=ountain
TTITLE12=Luke Gordon - Baby's Gone
TTITLE13=Luke Gordon and His Lonesome Drifters - What Can You Do ?
TTITLE14=Eddie Snell and His Midwestern Aces - I'm Going Down (For The 3
TTITLE14=rd Time)
TTITLE15=Eddie Snell and His Midwestern Aces - Head For The Hills
TTITLE16=Joe Bryant and The Mississippi Woodchoppers - Pulpwood Blues
TTITLE17=Joe Bryant and The Mississippi Woodchoppers - A Main Ain't Noth
TTITLE17=ing But A Woman's Slave
TTITLE18=Johnny Sutherland - I'm In Love
TTITLE19=Ken Clark and His Merry Mountain Boys - Ho! Ho! Love 'Em Joe 
TTITLE20="Cousin" Arnold and His Country Cousins - Sweet Talking Daddy
TTITLE21=Bob and Cindy Dean - I'm Knocking At The Door (Of Your Heart)
TTITLE22=Al Petty and The Rainbow Riders - Steeling The Boogie (Instr.)
TTITLE23=Rondell Barker With The Rainbow Drifters - Courtin' Under The
TTITLE23=Moon
TTITLE24=Lucky Hill - I'm Checkin' Out
TTITLE25=Lucky Hill - I'm Missing You
TTITLE26=Ray Anderson and The Home Folks - Sputniks And Mutniks
TTITLE27=Ken Clark and His Merry Mountain Boys - Quit Fool (Mama's Looki
TTITLE27=n')
TTITLE28=Hoyt Scoggins and The Saturday Nite Jamboree Boys - What's Gonn
TTITLE28=a Happen To This Old World
TTITLE29=Luke Gordon and His Lonesome Drifters - Going Down The Road
EXTD=
EXTT0=
EXTT1=
EXTT2=
EXTT3=
EXTT4=
EXTT5=
EXTT6=
EXTT7=
EXTT8=
EXTT9=
EXTT10=
EXTT11=
EXTT12=
EXTT13=
EXTT14=
EXTT15=
EXTT16=
EXTT17=
EXTT18=
EXTT19=
EXTT20=
EXTT21=
EXTT22=
EXTT23=
EXTT24=
EXTT25=
EXTT26=
EXTT27=
EXTT28=
EXTT29=
PLAYORDER=
